# xmcd CD database file
#
# Track frame offsets:
#	150
#	17228
#	30349
#	46465
#	60964
#	79671
#	94112
#	105715
#	122974
#	136809
#	146345
#	159634
#
# Disc length: 2309 seconds
#
# Revision: 1
# Processed by: cddbd v1.5.2PL0 Copyright (c) Steve Scherf et al.
# Submitted via: CDex 1.70beta2
#
DISCID=9409030c
DTITLE=Cosbey. Brian - Cdn. - The First Time
DYEAR=1900
DGENRE=Country
TTITLE0=Good Hearted Woman
TTITLE1=So Afraid of Losing You Again
TTITLE2=The Hobo's Lullaby
TTITLE3=Walkin' the Floor Over You
TTITLE4=Cold Crazy Heart
TTITLE5=Candy Kisses
TTITLE6=Crazy Arms
TTITLE7=Today I Started Loving You Again
TTITLE8=You're the Reason
TTITLE9=The Old Man From the Mountain
TTITLE10=Pride
TTITLE11=For the First Time
EXTD=
EXTT0=
EXTT1=
EXTT2=
EXTT3=
EXTT4=
EXTT5=
EXTT6=
EXTT7=
EXTT8=
EXTT9=
EXTT10=
EXTT11=
PLAYORDER=
